<svg width="120" height="120" viewBox="0 0 120 120" fill="none" xmlns="http://www.w3.org/2000/svg">
<path d="M97.5 62.1975V52.5H90V63.75C90.0002 64.7445 90.3954 65.6982 91.0987 66.4013L101.25 76.5525V82.5H18.75V76.5525L28.9012 66.4013C29.6046 65.6982 29.9998 64.7445 30 63.75V48.75C29.9895 43.4805 31.3699 38.3015 34.0016 33.7362C36.6333 29.1709 40.4231 25.3809 44.9884 22.749C49.5536 20.1172 54.7325 18.7367 60.002 18.7469C65.2716 18.7572 70.4451 20.1579 75 22.8075V14.4262C71.4304 12.8457 67.6337 11.8383 63.75 11.4413V3.75H56.25V11.4375C47.0047 12.3785 38.4366 16.7142 32.2026 23.6062C25.9687 30.4982 22.5116 39.4569 22.5 48.75V62.1975L12.3487 72.3487C11.6454 73.0518 11.2502 74.0055 11.25 75V86.25C11.25 87.2446 11.6451 88.1984 12.3483 88.9017C13.0516 89.6049 14.0054 90 15 90H41.25V93.75C41.25 98.7228 43.2254 103.492 46.7417 107.008C50.2581 110.525 55.0272 112.5 60 112.5C64.9728 112.5 69.7419 110.525 73.2583 107.008C76.7746 103.492 78.75 98.7228 78.75 93.75V90H105C105.995 90 106.948 89.6049 107.652 88.9017C108.355 88.1984 108.75 87.2446 108.75 86.25V75C108.75 74.0055 108.355 73.0518 107.651 72.3487L97.5 62.1975ZM71.25 93.75C71.25 96.7337 70.0647 99.5952 67.955 101.705C65.8452 103.815 62.9837 105 60 105C57.0163 105 54.1548 103.815 52.045 101.705C49.9353 99.5952 48.75 96.7337 48.75 93.75V90H71.25V93.75Z" fill="black"/>
<path d="M97.5 45C105.784 45 112.5 38.2843 112.5 30C112.5 21.7157 105.784 15 97.5 15C89.2157 15 82.5 21.7157 82.5 30C82.5 38.2843 89.2157 45 97.5 45Z" fill="#823E14"/>
</svg>
