<svg width="19" height="19" viewBox="0 0 19 19" fill="none" xmlns="http://www.w3.org/2000/svg">
<g id="material-symbols:location-on">
<path id="Vector" d="M9.50008 9.5C9.9355 9.5 10.3084 9.34484 10.6187 9.0345C10.929 8.72417 11.0839 8.35156 11.0834 7.91667C11.0834 7.48125 10.9282 7.10838 10.6179 6.79804C10.3076 6.48771 9.93497 6.33281 9.50008 6.33334C9.06466 6.33334 8.69179 6.4885 8.38146 6.79884C8.07112 7.10917 7.91622 7.48178 7.91675 7.91667C7.91675 8.35209 8.07192 8.72496 8.38225 9.03529C8.69258 9.34563 9.06519 9.50053 9.50008 9.5ZM9.50008 17.4167C7.37578 15.609 5.78928 13.9302 4.74058 12.3801C3.69189 10.83 3.16728 9.39497 3.16675 8.075C3.16675 6.09584 3.80351 4.5191 5.07704 3.34479C6.35057 2.17049 7.82491 1.58334 9.50008 1.58334C11.1758 1.58334 12.6504 2.17049 13.9239 3.34479C15.1974 4.5191 15.8339 6.09584 15.8334 8.075C15.8334 9.39445 15.3088 10.8295 14.2596 12.3801C13.2104 13.9307 11.6239 15.6096 9.50008 17.4167Z" fill="#823E14"/>
</g>
</svg>
