<svg width="18" height="18" viewBox="0 0 18 18" fill="none" xmlns="http://www.w3.org/2000/svg">
<path d="M3.75 17.775C3.3375 17.775 2.98425 17.6283 2.69025 17.3348C2.39625 17.0413 2.2495 16.688 2.25 16.275V5.77501C2.25 5.36251 2.397 5.00926 2.691 4.71526C2.985 4.42126 3.338 4.27451 3.75 4.27501H10.4438L8.94375 5.77501H3.75V16.275H14.25V11.0625L15.75 9.56251V16.275C15.75 16.6875 15.603 17.0408 15.309 17.3348C15.015 17.6288 14.662 17.7755 14.25 17.775H3.75ZM12.1313 4.70626L13.2 5.75626L8.25 10.7063V11.775H9.3L14.2688 6.80626L15.3375 7.85626L10.3688 12.825C10.2313 12.9625 10.0718 13.072 9.89025 13.1535C9.70875 13.235 9.51825 13.2755 9.31875 13.275H7.5C7.2875 13.275 7.10925 13.203 6.96525 13.059C6.82125 12.915 6.7495 12.737 6.75 12.525V10.7063C6.75 10.5063 6.7875 10.3155 6.8625 10.134C6.9375 9.95251 7.04375 9.79326 7.18125 9.65626L12.1313 4.70626ZM15.3375 7.85626L12.1313 4.70626L14.0063 2.83126C14.3063 2.53126 14.6658 2.38126 15.0848 2.38126C15.5038 2.38126 15.8568 2.53126 16.1438 2.83126L17.1938 3.90001C17.4813 4.18751 17.625 4.53751 17.625 4.95001C17.625 5.36251 17.4813 5.71251 17.1938 6.00001L15.3375 7.85626Z" fill="#823E14"/>
</svg>
