<svg width="16" height="12" viewBox="0 0 16 12" fill="none" xmlns="http://www.w3.org/2000/svg">
<path d="M1.25 0.75V0.1875C1.10082 0.1875 0.957742 0.246763 0.852252 0.352252C0.746763 0.457742 0.6875 0.600816 0.6875 0.75H1.25ZM14.75 0.75H15.3125C15.3125 0.600816 15.2532 0.457742 15.1477 0.352252C15.0423 0.246763 14.8992 0.1875 14.75 0.1875V0.75ZM1.25 1.3125H14.75V0.1875H1.25V1.3125ZM14.1875 0.75V9.75H15.3125V0.75H14.1875ZM13.25 10.6875H2.75V11.8125H13.25V10.6875ZM1.8125 9.75V0.75H0.6875V9.75H1.8125ZM2.75 10.6875C2.2325 10.6875 1.8125 10.2675 1.8125 9.75H0.6875C0.6875 10.297 0.904799 10.8216 1.29159 11.2084C1.67839 11.5952 2.20299 11.8125 2.75 11.8125V10.6875ZM14.1875 9.75C14.1875 10.2675 13.7675 10.6875 13.25 10.6875V11.8125C13.797 11.8125 14.3216 11.5952 14.7084 11.2084C15.0952 10.8216 15.3125 10.297 15.3125 9.75H14.1875Z" fill="#823E14"/>
<path d="M1.25 0.75L8 7.5L14.75 0.75" stroke="#823E14" stroke-width="1.5" stroke-linecap="round" stroke-linejoin="round"/>
</svg>
