<svg width="15" height="15" viewBox="0 0 15 15" fill="none" xmlns="http://www.w3.org/2000/svg">
<path d="M7.49275 0.416672C3.58275 0.416672 0.416504 3.59001 0.416504 7.50001C0.416504 11.41 3.58275 14.5833 7.49275 14.5833C11.4098 14.5833 14.5832 11.41 14.5832 7.50001C14.5832 3.59001 11.4098 0.416672 7.49275 0.416672ZM7.49984 13.1667C4.369 13.1667 1.83317 10.6308 1.83317 7.50001C1.83317 4.36917 4.369 1.83334 7.49984 1.83334C10.6307 1.83334 13.1665 4.36917 13.1665 7.50001C13.1665 10.6308 10.6307 13.1667 7.49984 13.1667ZM7.854 3.95834H6.7915V8.20834L10.5103 10.4396L11.0415 9.56834L7.854 7.67709V3.95834Z" fill="#823E14"/>
</svg>
