<svg width="26" height="26" viewBox="0 0 26 26" fill="none" xmlns="http://www.w3.org/2000/svg">
<path d="M5.5 15.5H15.5V13H5.5V15.5ZM5.5 11.75H20.5V9.25H5.5V11.75ZM5.5 8H20.5V5.5H5.5V8ZM0.5 25.5V3C0.5 2.3125 0.745 1.72375 1.235 1.23375C1.725 0.743752 2.31333 0.499169 3 0.500002H23C23.6875 0.500002 24.2763 0.745002 24.7663 1.235C25.2563 1.725 25.5008 2.31334 25.5 3V18C25.5 18.6875 25.255 19.2763 24.765 19.7663C24.275 20.2563 23.6867 20.5008 23 20.5H5.5L0.5 25.5ZM3 19.4688L4.46875 18H23V3H3V19.4688Z" fill="white"/>
</svg>
