<svg width="26" height="26" viewBox="0 0 26 26" fill="none" xmlns="http://www.w3.org/2000/svg">
<g id="mdi:user-arrow-right">
<path id="Vector" d="M19.5 17.3333H15.1667V19.5H19.5V21.6667L22.75 18.4167L19.5 15.1667V17.3333ZM11.9167 4.33333C9.53333 4.33333 7.58333 6.28333 7.58333 8.66666C7.58333 11.05 9.53333 13 11.9167 13C14.3 13 16.25 11.05 16.25 8.66666C16.25 6.28333 14.3 4.33333 11.9167 4.33333ZM11.9167 15.1667C7.15 15.1667 3.25 17.1167 3.25 19.5V21.6667H13.5417C13.2167 20.8 13 19.9333 13 18.9583C13 17.6583 13.325 16.4667 13.975 15.275C13.325 15.275 12.675 15.1667 11.9167 15.1667Z" fill="white"/>
</g>
</svg>
