<svg width="108" height="120" viewBox="0 0 108 120" fill="none" xmlns="http://www.w3.org/2000/svg">
<path d="M42.1667 95.5833L18.5 71.9167L26.8425 63.5742L42.1667 78.8392L81.1575 39.8483L89.5 48.25M54 12.75C55.5692 12.75 57.0741 13.3734 58.1837 14.4829C59.2933 15.5925 59.9167 17.0975 59.9167 18.6667C59.9167 20.2359 59.2933 21.7408 58.1837 22.8504C57.0741 23.96 55.5692 24.5833 54 24.5833C52.4308 24.5833 50.9259 23.96 49.8163 22.8504C48.7067 21.7408 48.0833 20.2359 48.0833 18.6667C48.0833 17.0975 48.7067 15.5925 49.8163 14.4829C50.9259 13.3734 52.4308 12.75 54 12.75ZM95.4167 12.75H70.685C68.2 5.88666 61.6917 0.916656 54 0.916656C46.3083 0.916656 39.8 5.88666 37.315 12.75H12.5833C9.44494 12.75 6.43508 13.9967 4.2159 16.2159C1.99672 18.4351 0.75 21.4449 0.75 24.5833V107.417C0.75 110.555 1.99672 113.565 4.2159 115.784C6.43508 118.003 9.44494 119.25 12.5833 119.25H95.4167C98.5551 119.25 101.565 118.003 103.784 115.784C106.003 113.565 107.25 110.555 107.25 107.417V24.5833C107.25 21.4449 106.003 18.4351 103.784 16.2159C101.565 13.9967 98.5551 12.75 95.4167 12.75Z" fill="#823E14"/>
</svg>
