<svg width="24" height="25" viewBox="0 0 24 25" fill="none" xmlns="http://www.w3.org/2000/svg">
<path d="M23.25 12C23.2537 14.2334 22.5894 16.417 21.3425 18.27C20.3142 19.8037 18.9238 21.0604 17.2944 21.929C15.6649 22.7975 13.8465 23.2513 12 23.25C10.1535 23.2513 8.3351 22.7975 6.70563 21.929C5.07616 21.0604 3.68581 19.8037 2.6575 18.27C1.67841 16.8105 1.05488 15.1419 0.836882 13.398C0.618887 11.6541 0.812494 9.88343 1.40218 8.22784C1.99187 6.57225 2.96124 5.07785 4.23258 3.86443C5.50392 2.65101 7.04187 1.75232 8.72313 1.24041C10.4044 0.728499 12.1822 0.617605 13.9141 0.916617C15.6459 1.21563 17.2836 1.91623 18.6959 2.96226C20.1082 4.00829 21.2557 5.37064 22.0466 6.94011C22.8374 8.50959 23.2496 10.2425 23.25 12Z" stroke="black" stroke-width="1.5"/>
<path d="M13.5626 8.25C13.5626 9.1125 12.8626 9.8125 12.0001 9.8125V11.6875C12.9118 11.6875 13.7861 11.3253 14.4308 10.6807C15.0754 10.036 15.4376 9.16168 15.4376 8.25H13.5626ZM12.0001 9.8125C11.1376 9.8125 10.4376 9.1125 10.4376 8.25H8.5626C8.5626 9.16168 8.92476 10.036 9.56942 10.6807C10.2141 11.3253 11.0884 11.6875 12.0001 11.6875V9.8125ZM10.4376 8.25C10.4376 7.3875 11.1376 6.6875 12.0001 6.6875V4.8125C11.0884 4.8125 10.2141 5.17466 9.56942 5.81932C8.92476 6.46398 8.5626 7.33832 8.5626 8.25H10.4376ZM12.0001 6.6875C12.8626 6.6875 13.5626 7.3875 13.5626 8.25H15.4376C15.4376 7.33832 15.0754 6.46398 14.4308 5.81932C13.7861 5.17466 12.9118 4.8125 12.0001 4.8125V6.6875ZM3.4576 19.32L2.55885 19.0525L2.4126 19.5425L2.74635 19.93L3.4576 19.32ZM20.5426 19.32L21.2551 19.9312L21.5876 19.5437L21.4413 19.0525L20.5426 19.32ZM8.2501 16.6875H15.7501V14.8125H8.2501V16.6875ZM8.2501 14.8125C6.97147 14.8126 5.72699 15.2252 4.70164 15.9891C3.67628 16.753 2.92478 17.8274 2.55885 19.0525L4.35635 19.5875C4.60701 18.7495 5.12126 18.0148 5.82273 17.4924C6.52419 16.9699 7.37546 16.6877 8.2501 16.6875V14.8125ZM12.0001 22.3125C10.5119 22.3142 9.04099 21.993 7.68895 21.371C6.33692 20.7491 5.13592 19.8412 4.16885 18.71L2.74635 19.93C3.88942 21.2662 5.30865 22.3399 6.90621 23.0747C8.50377 23.8095 10.2417 24.1892 12.0001 24.1875V22.3125ZM15.7501 16.6875C17.5876 16.6875 19.1438 17.91 19.6438 19.5875L21.4413 19.0525C21.0754 17.8274 20.3239 16.753 19.2986 15.9891C18.2732 15.2252 17.0287 14.8126 15.7501 14.8125V16.6875ZM19.8313 18.71C18.8643 19.8412 17.6633 20.7491 16.3112 21.371C14.9592 21.993 13.4883 22.3142 12.0001 22.3125V24.1875C13.7585 24.1892 15.4964 23.8095 17.094 23.0747C18.6915 22.3399 20.112 21.2675 21.2551 19.9312L19.8313 18.71Z" fill="black"/>
</svg>
